<svg width="93" height="66" viewBox="0 0 93 66" fill="none" xmlns="http://www.w3.org/2000/svg">
<path d="M60.8456 66H26.0938C24.392 66 23.0187 64.6365 23.0187 62.947V12.7941C23.0187 11.1045 24.392 9.74103 26.0938 9.74103H60.8158C62.5175 9.74103 63.8909 11.1045 63.8909 12.7941V62.9173C63.9208 64.6069 62.5474 66 60.8456 66Z" fill="url(#paint0_linear)"/>
<path d="M28.4822 23.376V30.1342H42.574V23.376L35.5281 18.9001L28.4822 23.376Z" fill="#FFD701"/>
<path d="M58.6363 36.4181H28.4822V38.8783H58.6363V36.4181Z" fill="#FDFEFF"/>
<path d="M58.6363 42.1981H28.4822V44.6583H58.6363V42.1981Z" fill="#FDFEFF"/>
<path d="M28.4822 57.493C28.4822 57.493 31.8559 51.4165 33.4681 52.8097C35.0802 54.2028 34.8713 56.8705 37.2896 56.0998C39.7079 55.3292 40.7827 50.6755 42.156 51.9501C43.5592 53.2247 42.8128 56.7519 45.3804 56.4259C47.948 56.0998 54.9342 54.6178 54.9342 54.6178" stroke="#FDFEFF" stroke-miterlimit="10"/>
<path d="M92.9999 37.8705H68.7871V23.1388C68.7871 16.4992 74.191 11.1342 80.8786 11.1342C87.5662 11.1342 92.9701 16.4992 92.9701 23.1388V37.8705H92.9999Z" fill="#A8C695"/>
<path d="M74.1611 31.4087C74.1611 32.6537 75.1762 33.6615 76.4302 33.6615H85.3271C86.581 33.6615 87.5961 32.6537 87.5961 31.4087V24.3838C87.5961 23.1388 86.581 22.131 85.3271 22.131H77.8931V20.234C77.8931 18.5148 79.2664 17.1217 80.998 17.1217C82.6998 17.1217 84.103 18.5148 84.103 20.234H85.357C85.357 17.8331 83.4163 15.8767 81.0279 15.8767C78.6395 15.8767 76.6989 17.8331 76.6989 20.234V22.131H76.4899C75.2359 22.131 74.2208 23.1388 74.2208 24.3838V31.4087H74.1611Z" fill="white"/>
<path d="M80.8786 30.1341C81.5354 30.1341 82.043 29.6302 82.043 28.9781V26.6958C82.043 26.0437 81.5354 25.5398 80.8786 25.5398C80.2218 25.5398 79.7142 26.0437 79.7142 26.6958V28.9781C79.7441 29.6599 80.2218 30.1341 80.8786 30.1341Z" fill="#A8C695"/>
<path d="M13.9425 28.798C21.6428 28.798 27.8851 22.5546 27.8851 14.853C27.8851 7.15135 21.6428 0.907959 13.9425 0.907959C6.24229 0.907959 0 7.15135 0 14.853C0 22.5546 6.24229 28.798 13.9425 28.798Z" fill="url(#paint1_linear)"/>
<path d="M13.9425 6.99954C12.1512 8.2537 10.1807 9.32869 7.46387 9.9259V13.8377C7.46387 17.8987 10.0912 21.4522 13.9425 22.6765C17.764 21.4522 20.4212 17.8987 20.4212 13.8377V9.9259C17.7342 9.35855 15.7936 8.28356 13.9425 6.99954ZM12.5095 18.1675L10.3897 16.0474L11.4645 14.9724L12.5095 16.0175L16.4205 12.0759L17.4953 13.1509L12.5095 18.1675Z" fill="white"/>
<defs>
<linearGradient id="paint0_linear" x1="43.455" y1="9.74103" x2="43.455" y2="66" gradientUnits="userSpaceOnUse">
<stop stop-color="#4F9B1E"/>
<stop offset="1" stop-color="#C0E5A9"/>
</linearGradient>
<linearGradient id="paint1_linear" x1="13.9425" y1="0.907959" x2="28.0416" y2="30.3547" gradientUnits="userSpaceOnUse">
<stop stop-color="#0F455D"/>
<stop offset="1" stop-color="#599EBD"/>
</linearGradient>
</defs>
</svg>
