<svg width="93" height="81" viewBox="0 0 93 81" fill="none" xmlns="http://www.w3.org/2000/svg">
<path d="M18.3953 28.8587H1.20427C0.541923 28.8587 0 28.3248 0 27.6723C0 27.0198 0.541923 26.4859 1.20427 26.4859H18.3953C19.0576 26.4859 19.5995 27.0198 19.5995 27.6723C19.5995 28.3248 19.0576 28.8587 18.3953 28.8587Z" fill="#0F455D"/>
<path d="M18.3953 33.7228H1.20427C0.541923 33.7228 0 33.1889 0 32.5364C0 31.8839 0.541923 31.35 1.20427 31.35H18.3953C19.0576 31.35 19.5995 31.8839 19.5995 32.5364C19.5995 33.1889 19.0576 33.7228 18.3953 33.7228Z" fill="#0F455D"/>
<path d="M28.3907 47.7221H4.27515V81H28.3907V47.7221Z" fill="#A8C695"/>
<path d="M57.2331 29.5705H33.1176V81H57.2331V29.5705Z" fill="url(#paint0_linear)"/>
<path d="M86.0454 57.2428H61.9298V81H86.0454V57.2428Z" fill="#BEDBAB"/>
<path d="M45.341 19.9905C49.9801 19.9905 53.7408 16.2856 53.7408 11.7155C53.7408 7.14533 49.9801 3.44049 45.341 3.44049C40.7019 3.44049 36.9412 7.14533 36.9412 11.7155C36.9412 16.2856 40.7019 19.9905 45.341 19.9905Z" fill="white"/>
<path d="M57.2331 11.7155C57.2331 5.24973 51.9042 0 45.3409 0C38.7776 0 33.4487 5.24973 33.4487 11.7155C33.4487 18.1813 38.7776 23.431 45.3409 23.431C51.9042 23.431 57.2331 18.1813 57.2331 11.7155ZM51.3021 11.0333L49.2849 12.9612L49.7666 15.6899C49.857 16.1644 49.6462 16.6686 49.2548 16.9652C48.8634 17.2618 48.3215 17.2915 47.8699 17.0542L45.371 15.7492L42.8722 17.0542C42.4206 17.2915 41.8786 17.2321 41.4873 16.9652C41.0658 16.6686 40.8851 16.1941 40.9754 15.6899L41.4571 12.9612L39.44 11.0333C39.0787 10.6774 38.9583 10.1732 39.1088 9.69865C39.2593 9.22409 39.6808 8.89784 40.1626 8.80886L42.9625 8.42329L44.1969 5.93189C44.4076 5.487 44.8893 5.22007 45.371 5.22007C45.8527 5.22007 46.3345 5.487 46.5452 5.93189L47.7796 8.42329L50.5795 8.80886C51.0913 8.86818 51.4827 9.22409 51.6333 9.69865C51.7838 10.1732 51.6634 10.7071 51.3021 11.0333Z" fill="url(#paint1_linear)"/>
<path d="M82.2518 45.6756C76.3208 45.6756 71.5037 40.9301 71.5037 35.0872V24.1132C71.5037 18.2702 76.3208 13.5247 82.2518 13.5247C88.1829 13.5247 92.9999 18.2702 92.9999 24.1132V35.0872C92.9999 40.9301 88.1829 45.6756 82.2518 45.6756Z" fill="#679847"/>
<path d="M82.2819 35.0278C82.2518 35.0278 82.2518 35.0278 82.2819 35.0278C82.2518 35.0278 82.2518 35.0278 82.2217 35.0278C81.0174 35.0278 80.054 34.0491 80.054 32.8627C80.054 32.2102 79.5121 31.6763 78.8497 31.6763C78.1874 31.6763 77.6454 32.2102 77.6454 32.8627C77.6454 34.9092 79.0304 36.7184 81.0475 37.2523V38.231C81.0475 38.8836 81.5894 39.4174 82.2518 39.4174C82.9141 39.4174 83.4561 38.8836 83.4561 38.231V37.2523C85.684 36.6591 87.1291 34.5236 86.828 32.2695C86.527 30.0154 84.57 28.3248 82.2518 28.3248C81.0475 28.3248 80.054 27.346 80.054 26.1596C80.054 24.9733 81.0475 23.9945 82.2518 23.9945C83.4561 23.9945 84.4496 24.9733 84.4496 26.1596C84.4496 26.8122 84.9915 27.346 85.6539 27.346C86.3162 27.346 86.8581 26.8122 86.8581 26.1596C86.8581 24.1131 85.4732 22.3039 83.4561 21.77V20.9396C83.4561 20.2871 82.9141 19.7532 82.2518 19.7532C81.5894 19.7532 81.0475 20.2871 81.0475 20.9396V21.77C78.8196 22.3632 77.3745 24.4987 77.6756 26.7528C77.9766 29.007 79.9336 30.6975 82.2518 30.6975C83.4561 30.6975 84.4496 31.6466 84.4797 32.8627C84.4797 34.0491 83.4862 35.0278 82.2819 35.0278Z" fill="white"/>
<defs>
<linearGradient id="paint0_linear" x1="45.1753" y1="29.5705" x2="72.9885" y2="59.1385" gradientUnits="userSpaceOnUse">
<stop stop-color="#0F455D"/>
<stop offset="1" stop-color="#599EBD"/>
</linearGradient>
<linearGradient id="paint1_linear" x1="45.3404" y1="23.4502" x2="45.3404" y2="0.000450063" gradientUnits="userSpaceOnUse">
<stop stop-color="#FD5900"/>
<stop offset="1" stop-color="#FFDE00"/>
</linearGradient>
</defs>
</svg>
