<svg width="90" height="79" viewBox="0 0 90 79" fill="none" xmlns="http://www.w3.org/2000/svg">
  <path
    d="M76.092 67.1124C83.7732 67.1124 90 60.82 90 53.0579C90 45.2958 83.7732 39.0034 76.092 39.0034C68.4108 39.0034 62.184 45.2958 62.184 53.0579C62.184 60.82 68.4108 67.1124 76.092 67.1124Z"
    fill="url(#paint0_linear)" />
  <path
    d="M76.092 45.1429C74.3051 46.3768 72.3395 47.4903 69.6294 48.0922V52.0347C69.6294 56.1276 72.2502 59.7089 76.092 60.9429C79.904 59.7089 82.5546 56.1276 82.5546 52.0347V48.0922C79.8445 47.5204 77.9087 46.4369 76.092 45.1429ZM74.6625 56.3985L72.548 54.2617L73.6201 53.1783L74.6625 54.2316L78.5639 50.2891L79.636 51.3726L74.6625 56.3985Z"
    fill="white" />
  <path
    d="M64.2984 57.0004C64.2984 57.0004 64.1495 62.2068 55.364 68.3162C51.6413 71.3257 48.9014 71.6267 44.6426 79C38.865 79 21.264 79 21.264 79C21.264 79 25.8206 70.784 29.2455 65.2465C30.8239 62.6884 36.9887 57.0004 36.9887 57.0004H64.2984Z"
    fill="#FFB5A1" />
  <g filter="url(#filter0_f)">
    <path d="M54.5 55.5L45 65.5L43 56L54.5 55.5Z" fill="#D8826A" fill-opacity="0.7" />
  </g>
  <path d="M64.2985 7.0423H36.8398V57.0305H64.2985V7.0423Z" fill="white" />
  <path
    d="M38.9245 27.8381C38.9245 27.8381 25.4037 46.437 29.2455 65.2465C25.91 70.8442 21.264 79 21.264 79L38.18 72.2286C38.18 72.2286 46.1615 67.624 46.1615 61.5749C46.1615 56.4286 40.7412 51.1619 40.3243 45.6545C39.9073 40.1471 41.9623 38.3413 42.3792 33.8271C42.7664 29.373 38.9245 27.8381 38.9245 27.8381Z"
    fill="#FFB5A1" />
  <path
    d="M28.6201 29.4933H14.2952C6.40304 29.4933 0 23.0229 0 15.0476C0 7.07237 6.40304 0.601898 14.2952 0.601898C22.1873 0.601898 28.5903 7.07237 28.5903 15.0476V29.4933H28.6201Z"
    fill="url(#paint1_linear)" />
  <path d="M87.8557 10.3528H71.446V26.9352H87.8557V10.3528Z" fill="#679847" fill-opacity="0.6" />
  <path
    d="M58.1932 16.101H43.5704C43.0046 16.101 42.5281 15.6194 42.5281 15.0476C42.5281 14.4758 43.0046 13.9943 43.5704 13.9943H58.1932C58.759 13.9943 59.2355 14.4758 59.2355 15.0476C59.2355 15.6194 58.759 16.101 58.1932 16.101Z"
    fill="#0F455D" />
  <path
    d="M58.1932 20.3444H43.5704C43.0046 20.3444 42.5281 19.8628 42.5281 19.291C42.5281 18.7192 43.0046 18.2377 43.5704 18.2377H58.1932C58.759 18.2377 59.2355 18.7192 59.2355 19.291C59.2355 19.8628 58.759 20.3444 58.1932 20.3444Z"
    fill="#0F455D" />
  <path
    d="M50.9861 29.7642C48.2164 30.005 46.1615 27.9284 46.3998 25.1295C49.1992 24.8587 51.2542 26.9352 50.9861 29.7642Z"
    fill="#7FB241" />
  <path
    d="M51.1053 31.7204C50.867 31.6602 50.6883 31.4495 50.6585 31.1787C50.5394 29.9749 50.867 28.8012 51.6115 27.8381C52.3561 26.9052 53.4282 26.3033 54.6195 26.1528C54.9471 26.1227 55.2449 26.3634 55.3045 26.6945C55.3342 27.0255 55.096 27.3265 54.7684 27.3867C53.9047 27.477 53.1304 27.9284 52.5646 28.5905C52.0285 29.2827 51.7605 30.1554 51.8796 31.0282C51.9094 31.3593 51.6711 31.6602 51.3435 31.7204C51.2542 31.7204 51.1648 31.7204 51.1053 31.7204Z"
    fill="#8E6D53" />
  <path
    d="M55.6022 29.7341C54.9471 29.5535 54.2621 29.5836 53.5771 29.8244C51.8498 30.3962 50.0033 30.3962 48.276 29.8244C47.591 29.6137 46.906 29.5535 46.2508 29.7341C43.6003 30.4564 42.3197 34.3086 43.3918 38.3714C44.4639 42.4343 47.4719 45.1429 50.1224 44.4507C50.6287 44.3002 51.1648 44.3002 51.7009 44.4507C54.3514 45.173 57.3594 42.4343 58.4315 38.3714C59.5334 34.3387 58.2528 30.4564 55.6022 29.7341Z"
    fill="#E14B4B" />
  <path
    d="M55.9298 53.0579H46.4294C45.2977 53.0579 44.3745 52.125 44.3745 50.9814C44.3745 49.8377 45.2977 48.9048 46.4294 48.9048H55.9298C57.0615 48.9048 57.9847 49.8377 57.9847 50.9814C57.9847 52.125 57.0615 53.0579 55.9298 53.0579Z"
    fill="#679847" />
  <path
    d="M23.5275 15.0476C23.5275 14.2652 22.9318 13.6332 22.1873 13.573C21.9788 12.4594 21.5619 11.4061 20.9067 10.4732C21.1152 10.2023 21.2343 9.87125 21.2343 9.54021C21.2343 9.14897 21.0854 8.75773 20.7876 8.48687C20.2515 7.94516 19.3878 7.91506 18.7922 8.39659C17.869 7.76459 16.8266 7.31316 15.7247 7.10249C15.6949 6.28992 15.0695 5.71811 14.2952 5.71811C13.5208 5.71811 12.8954 6.32001 12.8359 7.0724C11.7339 7.28306 10.6916 7.7044 9.76836 8.36649C9.17273 7.88497 8.33884 7.91506 7.77299 8.45678C7.50496 8.72763 7.32627 9.11887 7.32627 9.51011C7.32627 9.87125 7.44539 10.1722 7.65387 10.4431C7.02845 11.376 6.58173 12.4293 6.37326 13.5429C5.6585 13.6332 5.06287 14.2652 5.06287 15.0476C5.06287 15.8301 5.6585 16.4621 6.40304 16.5223C6.61151 17.6358 7.02845 18.6892 7.68365 19.6221C7.47518 19.893 7.35605 20.224 7.35605 20.5551C7.35605 20.9463 7.50496 21.3375 7.80277 21.6084C8.10059 21.9094 8.48775 22.0598 8.84513 22.0598C9.17273 22.0598 9.50032 21.9394 9.76836 21.7288C10.6916 22.3608 11.7339 22.8122 12.8359 23.0229C12.9252 23.7753 13.5506 24.3772 14.2952 24.3772C15.0695 24.3772 15.6949 23.7753 15.7545 23.0229C16.8564 22.8122 17.8987 22.3608 18.822 21.7288C19.09 21.9394 19.4176 22.0598 19.7452 22.0598C20.1324 22.0598 20.5195 21.9094 20.7876 21.6084C21.0556 21.3375 21.2343 20.9463 21.2343 20.5551C21.2343 20.1939 21.1152 19.893 20.9067 19.6221C21.5321 18.6892 21.9788 17.6358 22.1873 16.5223C22.9616 16.4621 23.5275 15.8301 23.5275 15.0476ZM18.8517 19.4114L17.3925 18.1775C17.5116 17.9669 17.5711 17.7261 17.5711 17.4553C17.5711 17.365 17.5711 17.2747 17.5414 17.1844L20.7876 15.8602C20.9662 16.1612 21.2641 16.3718 21.5917 16.4621C21.413 17.4553 21.0258 18.3882 20.46 19.2309C19.9537 18.96 19.3283 19.0202 18.8517 19.4114ZM9.88749 19.5017C9.79814 19.4114 9.73858 19.3513 9.64923 19.2911L10.8703 15.6194C10.9298 15.6194 10.9894 15.6495 11.049 15.6495C11.4659 15.6495 11.8531 15.469 12.1211 15.1981L14.7419 16.9135C14.6525 17.064 14.593 17.2446 14.593 17.4553C14.593 17.5756 14.593 17.6659 14.6228 17.7863L10.0662 19.8027C10.0364 19.6823 9.97683 19.592 9.88749 19.5017ZM8.13037 19.261C7.56452 18.4183 7.17736 17.4854 6.99867 16.4922C7.5943 16.3116 8.04103 15.7398 8.04103 15.0777L9.64923 14.7467C9.76836 15.0476 10.0066 15.2884 10.2746 15.469L9.0536 19.1406C8.75578 19.0503 8.42819 19.0804 8.13037 19.261ZM8.81535 11.0149C8.96426 11.0149 9.08338 10.9848 9.20251 10.9547L10.1257 12.941C9.76836 13.2118 9.53011 13.6332 9.53011 14.1448L7.9219 14.4457C7.74321 14.0244 7.41561 13.7234 6.99867 13.6031C7.17736 12.6099 7.56452 11.677 8.13037 10.8343C8.36862 10.9547 8.5771 11.0149 8.81535 11.0149ZM9.88749 10.5634C9.94705 10.5033 10.0066 10.413 10.0662 10.3528L14.0271 11.7973C14.0271 11.8575 13.9973 11.9478 13.9973 12.008C13.9973 12.1284 14.0271 12.2488 14.0271 12.3692L12.2105 13.2419C11.9424 12.8808 11.4957 12.64 11.0192 12.64C10.9001 12.64 10.7809 12.6701 10.6618 12.6701L9.73858 10.6537C9.79814 10.6537 9.8577 10.6236 9.88749 10.5634ZM18.7326 10.5634C19.0304 10.8644 19.4176 11.0149 19.775 11.0149C20.0132 11.0149 20.2515 10.9547 20.46 10.8343C21.0258 11.677 21.413 12.6099 21.5917 13.6031C21.2938 13.6933 21.0258 13.904 20.8173 14.1448L16.9159 12.3391C16.9755 12.2488 16.9755 12.1585 16.9755 12.0381C16.9755 11.8876 16.9457 11.7071 16.8862 11.5566L18.6731 10.5333C18.7028 10.5333 18.7028 10.5634 18.7326 10.5634ZM16.231 15.9505L15.9629 13.4526C16.2607 13.3623 16.5288 13.1516 16.7075 12.9109L20.6089 14.7166C20.5791 14.8069 20.5493 14.9273 20.5493 15.0476C20.5493 15.1379 20.5493 15.2282 20.5791 15.3185L17.3329 16.6427C17.0946 16.2514 16.6777 16.0107 16.231 15.9505ZM15.3673 13.5128L15.6353 16.0107C15.3971 16.101 15.1886 16.2214 15.0397 16.3718L12.4189 14.6564C12.4785 14.4758 12.538 14.2953 12.538 14.1147C12.538 13.9943 12.5083 13.8739 12.5083 13.7535L14.3249 12.8808C14.5632 13.272 14.9206 13.4827 15.3673 13.5128ZM15.7247 7.6442C16.7075 7.82478 17.6307 8.21601 18.4646 8.78782C18.3455 8.99849 18.2859 9.23925 18.2859 9.48002C18.2859 9.66059 18.3157 9.84116 18.3752 9.99163L16.5883 11.0149C16.3203 10.7139 15.9332 10.5033 15.4864 10.5033C15.4566 10.5033 15.4566 10.5033 15.4269 10.5033L14.9504 8.54706C15.3077 8.39659 15.6056 8.06554 15.7247 7.6442ZM14.2952 8.72763C14.3249 8.72763 14.3249 8.72763 14.3547 8.72763L14.8312 10.6838C14.5632 10.8042 14.3547 11.0149 14.2058 11.2556L10.2746 9.81106C10.3044 9.72078 10.3044 9.63049 10.3044 9.51011C10.3044 9.26935 10.2449 9.02859 10.1257 8.81792C10.9596 8.24611 11.8829 7.85487 12.8656 7.6743C13.0741 8.27621 13.64 8.72763 14.2952 8.72763ZM12.8954 22.421C11.9126 22.2404 10.9894 21.8492 10.1555 21.2774C10.2746 21.0667 10.3342 20.8259 10.3342 20.5852C10.3342 20.525 10.3342 20.4347 10.3044 20.3745L14.8908 18.328C15.0099 18.5086 15.1886 18.6591 15.3673 18.7494L14.4739 21.3676C14.4143 21.3676 14.3547 21.3676 14.2952 21.3676C13.64 21.3676 13.0741 21.8191 12.8954 22.421ZM15.0397 21.5783L15.9034 18.9299C15.9629 18.9299 16.0225 18.96 16.0821 18.96C16.4394 18.96 16.7373 18.8396 17.0053 18.629L18.4646 19.8629C18.3455 20.0735 18.2859 20.3143 18.2859 20.5551C18.2859 20.7958 18.3455 21.0366 18.4646 21.2473C17.6307 21.8191 16.7075 22.2103 15.7247 22.3909C15.6056 22.0598 15.3673 21.7589 15.0397 21.5783Z"
    fill="white" />
  <defs>
    <filter id="filter0_f" x="39" y="51.5" width="19.5" height="18" filterUnits="userSpaceOnUse"
      color-interpolation-filters="sRGB">
      <feFlood flood-opacity="0" result="BackgroundImageFix" />
      <feBlend mode="normal" in="SourceGraphic" in2="BackgroundImageFix" result="shape" />
      <feGaussianBlur stdDeviation="2" result="effect1_foregroundBlur" />
    </filter>
    <linearGradient id="paint0_linear" x1="76.092" y1="39.0034" x2="90.3933" y2="68.5666"
      gradientUnits="userSpaceOnUse">
      <stop stop-color="#0F455D" />
      <stop offset="1" stop-color="#599EBD" />
    </linearGradient>
    <linearGradient id="paint1_linear" x1="14.3101" y1="0.601899" x2="29" y2="31"
      gradientUnits="userSpaceOnUse">
      <stop stop-color="#0F455D" />
      <stop offset="1" stop-color="#599EBD" />
    </linearGradient>
  </defs>
</svg>