<svg width="345" height="309" viewBox="0 0 345 309" fill="none" xmlns="http://www.w3.org/2000/svg">
<path d="M237.755 24.6174L237.387 25.071L276.631 57.0692L276.999 56.6156L237.755 24.6174Z" fill="#5DA362"/>
<path d="M278.154 74.9864L275.823 124.757L276.407 124.784L278.737 75.0139L278.154 74.9864Z" fill="#5DA362"/>
<path d="M246.857 78.7448L246.342 79.0193L272.309 127.972L272.824 127.697L246.857 78.7448Z" fill="#5DA362"/>
<path d="M272.155 62.0869L252.694 65.9521L252.807 66.5258L272.269 62.6605L272.155 62.0869Z" fill="#5DA362"/>
<path d="M230.245 33.2294L229.71 33.4629L242.452 62.7932L242.987 62.5598L230.245 33.2294Z" fill="#5DA362"/>
<path d="M225.857 17.0233L184.162 23.8442L184.256 24.4214L225.951 17.6005L225.857 17.0233Z" fill="#5DA362"/>
<path d="M183.909 28.471L183.594 28.9631L239.481 64.9003L239.796 64.4081L183.909 28.471Z" fill="#5DA362"/>
<path d="M243.455 78.8026L239.188 116.987L239.769 117.052L244.036 78.8678L243.455 78.8026Z" fill="#5DA362"/>
<path d="M267.095 140.194L213.798 171.311L214.092 171.816L267.389 140.699L267.095 140.194Z" fill="#5DA362"/>
<path d="M243.35 126.731L243.187 127.293L268.177 134.58L268.34 134.019L243.35 126.731Z" fill="#5DA362"/>
<path d="M232.046 136.872L213.107 162.333L213.575 162.683L232.513 137.222L232.046 136.872Z" fill="#5DA362"/>
<path d="M119.243 133.079L118.783 133.438L139.65 160.219L140.11 159.859L119.243 133.079Z" fill="#5DA362"/>
<path d="M105.837 124.668L83.228 133.688L83.444 134.232L106.052 125.211L105.837 124.668Z" fill="#5DA362"/>
<path d="M105.317 83.7545L104.75 83.8931L111.662 112.3L112.229 112.161L105.317 83.7545Z" fill="#5DA362"/>
<path d="M98.117 79.5608L76.492 122.664L77.013 122.927L98.638 79.8235L98.117 79.5608Z" fill="#5DA362"/>
<path d="M69.103 69.7147L68.521 69.7705L73.44 121.293L74.022 121.237L69.103 69.7147Z" fill="#5DA362"/>
<path d="M82.582 140.645L82.291 141.151L134.24 171.21L134.531 170.704L82.582 140.645Z" fill="#5DA362"/>
<path d="M118.016 36.8183L104.176 68.4734L104.711 68.7081L118.55 37.053L118.016 36.8183Z" fill="#5DA362"/>
<path d="M144.174 17.0936L144.034 17.6614L170.265 24.1461L170.405 23.5784L144.174 17.0936Z" fill="#5DA362"/>
<path d="M109.262 28.4912L73.984 54.0474L74.326 54.5213L109.604 28.9651L109.262 28.4912Z" fill="#5DA362"/>
<path d="M78.917 61.1994L78.67 61.729L95.106 69.4386L95.354 68.9089L78.917 61.1994Z" fill="#5DA362"/>
<path d="M168.018 29.3557L108.332 72.0793L108.672 72.5552L168.357 29.8315L168.018 29.3557Z" fill="#5DA362"/>
<path d="M197.543 170.557H148.585V171.142H197.543V170.557Z" fill="#5DA362"/>
<path d="M234.889 118.802C231.388 118.802 228.529 121.61 228.529 125.118C228.529 128.627 234.889 135.294 234.889 135.294C234.889 135.294 241.25 128.627 241.25 125.118C241.25 121.61 238.391 118.802 234.889 118.802ZM234.889 128.101C232.905 128.101 231.272 126.463 231.272 124.534C231.272 122.545 232.905 120.966 234.889 120.966C236.873 120.966 238.507 122.545 238.507 124.534C238.507 126.522 236.873 128.101 234.889 128.101Z" fill="#E8A16C"/>
<path d="M114.973 113.597C111.472 113.597 108.613 116.404 108.613 119.913C108.613 123.422 114.973 130.089 114.973 130.089C114.973 130.089 121.334 123.422 121.334 119.913C121.334 116.404 118.474 113.597 114.973 113.597ZM114.973 122.896C112.989 122.896 111.355 121.258 111.355 119.328C111.355 117.34 112.989 115.761 114.973 115.761C116.957 115.761 118.591 117.34 118.591 119.328C118.591 121.317 117.015 122.896 114.973 122.896Z" fill="#E8A16C"/>
<path d="M68.29 51.9009C64.789 51.9009 61.93 54.7079 61.93 58.2167C61.93 61.7255 68.29 68.3923 68.29 68.3923C68.29 68.3923 74.651 61.7255 74.651 58.2167C74.592 54.7664 71.733 51.9009 68.29 51.9009ZM68.29 61.2577C66.306 61.2577 64.672 59.6202 64.672 57.6904C64.672 55.7021 66.306 54.1231 68.29 54.1231C70.274 54.1231 71.908 55.7021 71.908 57.6904C71.908 59.6787 70.274 61.2577 68.29 61.2577Z" fill="#E8A16C"/>
<path d="M177.937 17.5146C174.435 17.5146 171.576 20.3217 171.576 23.8305C171.576 27.3393 177.937 34.006 177.937 34.006C177.937 34.006 184.297 27.3393 184.297 23.8305C184.297 20.3217 181.438 17.5146 177.937 17.5146ZM177.937 26.813C175.953 26.813 174.319 25.1755 174.319 23.2457C174.319 21.3158 175.953 19.6784 177.937 19.6784C179.921 19.6784 181.554 21.2574 181.554 23.2457C181.554 25.234 179.921 26.813 177.937 26.813Z" fill="#E8A16C"/>
<path d="M275.737 129.504C272.236 129.504 269.376 132.311 269.376 135.82C269.376 139.329 275.737 145.995 275.737 145.995C275.737 145.995 282.097 139.329 282.097 135.82C282.097 132.311 279.18 129.504 275.737 129.504ZM275.737 138.802C273.753 138.802 272.119 137.165 272.119 135.235C272.119 133.305 273.753 131.668 275.737 131.668C277.721 131.668 279.355 133.247 279.355 135.235C279.296 137.223 277.721 138.802 275.737 138.802Z" fill="#E8A16C"/>
<path d="M278.421 58.3337C275.445 58.3337 273.052 60.7314 273.052 63.7139C273.052 66.6964 278.421 72.3105 278.421 72.3105C278.421 72.3105 283.79 66.6964 283.79 63.7139C283.79 60.7314 281.339 58.3337 278.421 58.3337ZM278.421 66.2285C276.729 66.2285 275.387 64.8835 275.387 63.1876C275.387 61.5501 276.729 60.1466 278.421 60.1466C280.113 60.1466 281.455 61.4917 281.455 63.1876C281.455 64.8835 280.113 66.2285 278.421 66.2285Z" fill="#E8A16C"/>
<path d="M230.513 16.8716C227.537 16.8716 225.144 19.2693 225.144 22.2518C225.144 25.2342 230.513 30.8483 230.513 30.8483C230.513 30.8483 235.881 25.2342 235.881 22.2518C235.881 19.2693 233.43 16.8716 230.513 16.8716ZM230.513 24.7664C228.821 24.7664 227.478 23.4214 227.478 21.7254C227.478 20.0295 228.821 18.6845 230.513 18.6845C232.205 18.6845 233.547 20.0295 233.547 21.7254C233.547 23.4214 232.205 24.7664 230.513 24.7664Z" fill="#E8A16C"/>
<path d="M102.252 68.5681C99.51 68.5681 97.292 70.7904 97.292 73.5389C97.292 76.2875 102.252 81.4922 102.252 81.4922C102.252 81.4922 107.212 76.2875 107.212 73.5389C107.212 70.7904 104.995 68.5681 102.252 68.5681ZM102.252 75.8196C100.677 75.8196 99.451 74.5331 99.451 73.0126C99.451 71.4921 100.735 70.2056 102.252 70.2056C103.828 70.2056 105.053 71.4336 105.053 73.0126C105.053 74.5916 103.769 75.8196 102.252 75.8196Z" fill="#E8A16C"/>
<path d="M205.771 160.13C203.028 160.13 200.811 162.352 200.811 165.101C200.811 167.849 205.771 173.054 205.771 173.054C205.771 173.054 210.731 167.849 210.731 165.101C210.731 162.352 208.455 160.13 205.771 160.13ZM205.771 167.44C204.196 167.44 202.97 166.154 202.97 164.633C202.97 163.113 204.254 161.826 205.771 161.826C207.347 161.826 208.572 163.054 208.572 164.633C208.572 166.154 207.288 167.44 205.771 167.44Z" fill="#E8A16C"/>
<path d="M140.648 160.13C137.906 160.13 135.688 162.352 135.688 165.101C135.688 167.849 140.648 173.054 140.648 173.054C140.648 173.054 145.608 167.849 145.608 165.101C145.608 162.352 143.391 160.13 140.648 160.13ZM140.648 167.44C139.073 167.44 137.847 166.154 137.847 164.633C137.847 163.113 139.131 161.826 140.648 161.826C142.224 161.826 143.449 163.054 143.449 164.633C143.449 166.154 142.224 167.44 140.648 167.44Z" fill="#E8A16C"/>
<path d="M76.168 121.241C73.425 121.241 71.208 123.463 71.208 126.212C71.208 128.96 76.168 134.165 76.168 134.165C76.168 134.165 81.128 128.96 81.128 126.212C81.128 123.463 78.852 121.241 76.168 121.241ZM76.168 128.492C74.592 128.492 73.367 127.206 73.367 125.685C73.367 124.165 74.651 122.878 76.168 122.878C77.685 122.878 78.969 124.106 78.969 125.685C78.969 127.264 77.685 128.492 76.168 128.492Z" fill="#E8A16C"/>
<path d="M244.751 61.0647C242.009 61.0647 239.791 63.2869 239.791 66.0355C239.791 68.7841 244.751 73.9888 244.751 73.9888C244.751 73.9888 249.711 68.7841 249.711 66.0355C249.711 63.2869 247.494 61.0647 244.751 61.0647ZM244.751 68.3747C243.176 68.3747 241.95 67.0881 241.95 65.5677C241.95 64.0472 243.234 62.7606 244.751 62.7606C246.327 62.7606 247.552 63.9887 247.552 65.5677C247.552 67.1466 246.268 68.3747 244.751 68.3747Z" fill="#E8A16C"/>
<path d="M124.718 12C121.217 12 118.358 14.807 118.358 18.3158C118.358 21.8246 124.718 28.4914 124.718 28.4914C124.718 28.4914 131.079 21.8246 131.079 18.3158C131.079 14.807 128.219 12 124.718 12ZM124.718 21.2983C122.734 21.2983 121.1 19.6609 121.1 17.7311C121.1 15.8012 122.734 14.1638 124.718 14.1638C126.702 14.1638 128.336 15.7427 128.336 17.7311C128.336 19.7194 126.702 21.2983 124.718 21.2983Z" fill="#E8A16C"/>
<path opacity="0.4" d="M82.0918 211.911H34.8919C29.4187 211.911 25 206.785 25 200.437V167.473C25 161.125 29.4187 156 34.8919 156H82.0918C87.565 156 91.9837 161.125 91.9837 167.473V200.437C91.9837 206.785 87.565 211.911 82.0918 211.911Z" fill="#0A7B41"/>
<path opacity="0.46" d="M181.771 307.897H55.9026C42.7147 307.897 32.036 297.196 32.036 283.979V144.212C32.036 130.995 42.7147 120.293 55.9026 120.293H181.771C194.959 120.293 205.637 130.995 205.637 144.212V283.979C205.579 297.196 194.9 307.897 181.771 307.897Z" fill="url(#paint0_linear_1_3)"/>
<path d="M219.701 307.956H121.609C114.723 307.956 109.121 302.342 109.121 295.441V84.2113C109.121 77.3106 114.723 71.6965 121.609 71.6965H219.701C226.586 71.6965 232.188 77.3106 232.188 84.2113V295.441C232.188 302.342 226.586 307.956 219.701 307.956Z" fill="url(#paint1_linear_1_3)"/>
<path d="M217.133 304.74H124.176C117.641 304.74 112.389 299.476 112.389 292.927V94.7378C112.389 88.188 117.641 82.9248 124.176 82.9248H217.133C223.669 82.9248 228.921 88.188 228.921 94.7378V292.927C228.921 299.418 223.669 304.74 217.133 304.74Z" fill="#E3EAD6"/>
<path d="M185.68 78.7141H155.57C155.045 78.7141 154.695 78.3048 154.695 77.8369C154.695 77.3106 155.103 76.9597 155.57 76.9597H185.68C186.206 76.9597 186.556 77.3691 186.556 77.8369C186.614 78.3048 186.206 78.7141 185.68 78.7141Z" fill="white"/>
<path d="M214.916 148.656H126.685C123.884 148.656 121.667 146.375 121.667 143.627V116.317C121.667 113.51 123.943 111.287 126.685 111.287H214.916C217.717 111.287 219.934 113.568 219.934 116.317V143.627C219.934 146.375 217.658 148.656 214.916 148.656Z" fill="#B6CE93"/>
<path d="M216.666 108.188H124.935C123.126 108.188 121.667 106.726 121.667 104.913V95.7319C121.667 93.919 123.126 92.457 124.935 92.457H216.666C218.475 92.457 219.934 93.919 219.934 95.7319V104.913C219.934 106.726 218.475 108.188 216.666 108.188Z" fill="#F1F1F1"/>
<path d="M136.08 104.387L133.104 101.697C133.571 101.053 133.863 100.293 133.863 99.4745C133.863 97.3693 132.171 95.6733 130.07 95.6733C127.969 95.6733 126.277 97.3693 126.277 99.4745C126.277 101.58 127.969 103.276 130.07 103.276C130.887 103.276 131.704 102.983 132.287 102.515L135.322 105.264C135.438 105.381 135.555 105.439 135.73 105.439C135.905 105.439 136.022 105.381 136.139 105.264C136.372 104.972 136.372 104.621 136.08 104.387ZM130.07 102.106C128.611 102.106 127.444 100.937 127.444 99.4745C127.444 98.0125 128.611 96.8429 130.07 96.8429C131.529 96.8429 132.696 98.0125 132.696 99.4745C132.696 100.937 131.529 102.106 130.07 102.106Z" fill="#ACADAC"/>
<path d="M216.608 304.973H124.818C117.991 304.973 112.447 299.418 112.447 292.576V284.798H229.037V292.576C228.979 299.418 223.435 304.973 216.608 304.973Z" fill="#F4F4F4"/>
<path d="M134.913 300.061C134.913 300.412 134.68 300.646 134.33 300.646H126.16C125.81 300.646 125.577 300.412 125.577 300.061V294.798H123.826L129.837 289.301C130.07 289.126 130.42 289.126 130.595 289.301L136.606 294.798H134.855V300.061H134.913ZM127.677 295.968C127.677 297.43 128.845 298.599 130.303 298.599C131.762 298.599 132.929 297.43 132.929 295.968H131.762C131.762 296.786 131.12 297.43 130.303 297.43C129.486 297.43 128.845 296.786 128.845 295.968H127.677Z" fill="#139148"/>
<path d="M163.273 299.768H152.361V298.657H152.886V294.856C152.886 292.108 155.103 289.944 157.788 289.944C160.472 289.944 162.689 292.166 162.689 294.856V298.657H163.215V299.768H163.273ZM156.446 300.295H159.188C159.188 301.055 158.605 301.64 157.846 301.64C157.087 301.64 156.446 301.055 156.446 300.295Z" fill="#757575"/>
<path d="M189.007 288.833C188.715 288.833 188.482 289.008 188.423 289.301L187.84 291.874H179.962C179.787 291.874 179.612 291.932 179.495 292.108C179.378 292.283 179.32 292.459 179.378 292.634L180.604 297.488C180.662 297.78 180.896 297.956 181.187 297.956H187.256C187.548 297.956 187.781 297.78 187.84 297.488L189.532 290.061H191.458V288.833H189.007ZM186.673 296.728H181.596L180.662 293.102H187.49L186.673 296.728Z" fill="#757575"/>
<path d="M181.713 300.938C182.389 300.938 182.938 300.388 182.938 299.71C182.938 299.032 182.389 298.482 181.713 298.482C181.036 298.482 180.487 299.032 180.487 299.71C180.487 300.388 181.036 300.938 181.713 300.938Z" fill="#757575"/>
<path d="M186.556 300.938C187.233 300.938 187.781 300.388 187.781 299.71C187.781 299.032 187.233 298.482 186.556 298.482C185.879 298.482 185.331 299.032 185.331 299.71C185.331 300.388 185.879 300.938 186.556 300.938Z" fill="#757575"/>
<path d="M213.982 301.815C214.041 301.815 214.099 301.815 214.216 301.757C214.391 301.698 214.507 301.698 214.624 301.64C214.682 301.64 214.799 301.581 214.857 301.581C214.974 301.523 215.033 301.523 215.149 301.464C215.208 301.406 215.324 301.406 215.383 301.347C215.441 301.289 215.558 301.289 215.616 301.231C215.674 301.172 215.791 301.172 215.849 301.114C215.908 301.055 215.966 301.055 216.025 300.997C217.775 299.944 218.942 298.014 218.942 295.792C218.942 292.4 216.2 289.71 212.873 289.71C209.547 289.71 206.805 292.459 206.805 295.792C206.805 297.897 207.855 299.769 209.489 300.88C209.606 300.997 209.781 301.055 209.956 301.172C210.014 301.231 210.072 301.231 210.131 301.289C210.248 301.348 210.364 301.406 210.423 301.464C210.481 301.464 210.539 301.523 210.598 301.523C210.714 301.581 210.831 301.64 210.948 301.64C211.006 301.64 211.006 301.698 211.065 301.698C211.24 301.757 211.415 301.815 211.59 301.815C211.648 301.815 211.706 301.815 211.765 301.874C211.881 301.874 211.998 301.932 212.173 301.932C212.232 301.932 212.29 301.932 212.348 301.932C212.523 301.932 212.698 301.932 212.873 301.932C213.049 301.932 213.224 301.932 213.399 301.932C213.457 301.932 213.515 301.932 213.574 301.932C213.749 301.815 213.865 301.815 213.982 301.815ZM207.913 295.792C207.913 293.043 210.131 290.821 212.873 290.821C215.616 290.821 217.833 293.043 217.833 295.792C217.833 297.195 217.25 298.423 216.375 299.301C216.083 298.131 215.208 297.195 214.157 296.786C214.624 296.377 214.974 295.792 214.974 295.149C214.974 293.979 214.041 293.043 212.873 293.043C211.706 293.043 210.773 293.979 210.773 295.149C210.773 295.85 211.123 296.435 211.59 296.786C210.481 297.195 209.664 298.131 209.372 299.301C208.497 298.423 207.913 297.195 207.913 295.792Z" fill="#757575"/>
<path d="M209.605 254.564H131.645C130.128 254.564 128.903 253.336 128.903 251.815V230.996C128.903 229.476 130.128 228.248 131.645 228.248H209.605C211.123 228.248 212.348 229.476 212.348 230.996V251.757C212.348 253.336 211.123 254.564 209.605 254.564Z" fill="white"/>
<path opacity="0.5" d="M209.605 254.564H131.645C130.128 254.564 128.903 253.336 128.903 251.815V230.996C128.903 229.476 130.128 228.248 131.645 228.248H209.605C211.123 228.248 212.348 229.476 212.348 230.996V251.757C212.348 253.336 211.123 254.564 209.605 254.564Z" fill="#5DA362"/>
<path d="M203.828 240.178H154.403C153.411 240.178 152.652 239.418 152.652 238.423C152.652 237.429 153.411 236.669 154.403 236.669H203.828C204.82 236.669 205.579 237.429 205.579 238.423C205.579 239.359 204.82 240.178 203.828 240.178Z" fill="white"/>
<path d="M175.177 245.908H154.403C153.411 245.908 152.652 245.148 152.652 244.154C152.652 243.16 153.411 242.4 154.403 242.4H175.177C176.169 242.4 176.928 243.16 176.928 244.154C176.928 245.09 176.169 245.908 175.177 245.908Z" fill="white"/>
<path d="M140.982 233.978C137.189 233.978 134.096 237.078 134.096 240.879C134.096 244.68 137.189 247.78 140.982 247.78C144.775 247.78 147.867 244.68 147.867 240.879C147.867 237.078 144.775 233.978 140.982 233.978ZM144.891 239.008L140.573 243.335C140.282 243.627 139.756 243.627 139.406 243.335L137.247 241.171C136.955 240.879 136.955 240.353 137.247 240.002C137.539 239.709 138.064 239.709 138.414 240.002L139.99 241.581L143.724 237.838C144.016 237.546 144.541 237.546 144.891 237.838C145.183 238.189 145.183 238.715 144.891 239.008Z" fill="white"/>
<path d="M209.605 223.335H131.645C130.128 223.335 128.903 222.107 128.903 220.587V199.826C128.903 198.306 130.128 197.078 131.645 197.078H209.605C211.123 197.078 212.348 198.306 212.348 199.826V220.587C212.348 222.049 211.123 223.335 209.605 223.335Z" fill="white"/>
<path opacity="0.8" d="M209.605 223.335H131.645C130.128 223.335 128.903 222.107 128.903 220.587V199.826C128.903 198.306 130.128 197.078 131.645 197.078H209.605C211.123 197.078 212.348 198.306 212.348 199.826V220.587C212.348 222.049 211.123 223.335 209.605 223.335Z" fill="#5DA362"/>
<path d="M203.828 208.891H154.403C153.411 208.891 152.652 208.131 152.652 207.136C152.652 206.142 153.411 205.382 154.403 205.382H203.828C204.82 205.382 205.579 206.142 205.579 207.136C205.579 208.131 204.82 208.891 203.828 208.891Z" fill="white"/>
<path d="M175.177 214.622H154.403C153.411 214.622 152.652 213.862 152.652 212.867C152.652 211.873 153.411 211.113 154.403 211.113H175.177C176.169 211.113 176.928 211.873 176.928 212.867C176.928 213.862 176.169 214.622 175.177 214.622Z" fill="white"/>
<path d="M140.982 202.75C137.189 202.75 134.096 205.85 134.096 209.651C134.096 213.452 137.189 216.552 140.982 216.552C144.775 216.552 147.867 213.452 147.867 209.651C147.867 205.85 144.775 202.75 140.982 202.75ZM144.891 207.78L140.573 212.107C140.282 212.4 139.756 212.4 139.406 212.107L137.247 209.944C136.955 209.651 136.955 209.125 137.247 208.774C137.539 208.482 138.064 208.482 138.414 208.774L139.99 210.353L143.724 206.61C144.016 206.318 144.541 206.318 144.891 206.61C145.183 206.903 145.183 207.429 144.891 207.78Z" fill="white"/>
<path d="M209.605 191.522H131.645C130.128 191.522 128.903 190.294 128.903 188.774V168.013C128.903 166.493 130.128 165.265 131.645 165.265H209.605C211.123 165.265 212.348 166.493 212.348 168.013V188.774C212.348 190.294 211.123 191.522 209.605 191.522Z" fill="white"/>
<path d="M209.605 191.522H131.645C130.128 191.522 128.903 190.294 128.903 188.774V168.013C128.903 166.493 130.128 165.265 131.645 165.265H209.605C211.123 165.265 212.348 166.493 212.348 168.013V188.774C212.348 190.294 211.123 191.522 209.605 191.522Z" fill="#5DA362"/>
<path d="M203.828 177.136H154.403C153.411 177.136 152.652 176.376 152.652 175.382C152.652 174.387 153.411 173.627 154.403 173.627H203.828C204.82 173.627 205.579 174.387 205.579 175.382C205.579 176.317 204.82 177.136 203.828 177.136Z" fill="white"/>
<path d="M175.177 182.867H154.403C153.411 182.867 152.652 182.107 152.652 181.113C152.652 180.118 153.411 179.358 154.403 179.358H175.177C176.169 179.358 176.928 180.118 176.928 181.113C176.928 182.048 176.169 182.867 175.177 182.867Z" fill="white"/>
<path d="M140.982 170.937C137.189 170.937 134.096 174.037 134.096 177.838C134.096 181.639 137.189 184.739 140.982 184.739C144.775 184.739 147.867 181.639 147.867 177.838C147.867 174.037 144.775 170.937 140.982 170.937ZM144.891 175.967L140.573 180.294C140.282 180.586 139.756 180.586 139.406 180.294L137.247 178.13C136.955 177.838 136.955 177.312 137.247 176.961C137.539 176.668 138.064 176.668 138.414 176.961L139.99 178.54L143.724 174.797C144.016 174.505 144.541 174.505 144.891 174.797C145.183 175.148 145.183 175.674 144.891 175.967Z" fill="white"/>
<path d="M264.866 266.201H237.207V307.839H264.866V266.201Z" fill="#E9A26C"/>
<path d="M264.826 307.851H275.446V266.213H264.826V307.851Z" fill="#D89261"/>
<path d="M232.713 307.839H246.776C246.776 307.839 247.535 305.324 245.843 302.225C245.843 302.225 244.734 303.161 241.35 302.517C241.35 302.517 239.949 303.745 238.957 304.213C237.965 304.681 232.305 305.792 232.713 307.839Z" fill="#281616"/>
<path d="M233.706 268.131C234.639 273.57 238.782 291.932 240.591 302.81C243.859 303.102 245.493 302.693 246.31 302.517C246.135 298.716 245.843 289.652 245.843 285.734C245.901 279.008 246.193 270.178 243.276 265.324L233.355 266.084C233.414 266.611 233.472 267.02 233.531 267.312C233.589 267.605 233.647 267.897 233.706 268.131Z" fill="url(#paint2_linear_1_3)"/>
<path d="M207.271 307.839H221.335C221.335 307.839 222.093 305.324 220.401 302.225C220.401 302.225 219.292 303.161 215.908 302.517C215.908 302.517 214.507 303.745 213.515 304.213C212.523 304.681 206.863 305.792 207.271 307.839Z" fill="#281616"/>
<path d="M254.304 251.991C254.129 250.061 253.896 248.657 253.896 248.657L242.983 251.347L233.705 253.453C230.262 254.213 226.119 255.149 222.501 255.967C218.417 256.903 215.674 260.002 216.608 264.154L217.658 269.125C223.377 269.067 250.336 266.435 252.67 265.266C255.179 263.979 255.996 259.301 254.304 251.991Z" fill="#2E4B3F"/>
<path d="M215.499 302.459C218.183 303.102 220.109 303.044 221.043 302.985C221.801 298.599 222.968 289.009 224.019 284.506C225.653 277.488 227.287 267.897 226.178 264.447L216.433 261.991C216.374 262.342 215.616 291.757 215.499 302.459Z" fill="url(#paint3_linear_1_3)"/>
<path d="M270.527 251.99C270.352 250.06 269.418 248.014 269.418 248.014L259.264 251.347L249.986 253.452C246.543 254.213 242.4 255.148 238.782 255.967C234.698 256.903 231.955 260.002 232.889 264.154L233.939 269.125C239.658 269.066 263.641 268.189 268.951 265.265C271.402 263.862 272.219 259.3 270.527 251.99Z" fill="#2E4B3F"/>
<path d="M240.066 236.376C240.066 236.376 244.909 234.213 246.251 236.376C246.952 237.605 246.485 239.827 244.851 240.762C243.217 241.698 233.881 245.675 225.069 247.839C225.069 247.839 224.719 246.61 224.077 245.324C224.077 245.324 228.045 243.686 231.955 240.938C235.865 238.131 240.066 236.376 240.066 236.376Z" fill="#E5918F"/>
<path d="M241.292 221.23L237.148 237.838C237.148 237.838 237.557 242.049 241.817 240.002C246.018 237.955 248.819 224.739 248.819 224.739L241.292 221.23Z" fill="#E2B896"/>
<path fill-rule="evenodd" clip-rule="evenodd" d="M266.553 209.613C266.825 209.719 267.688 210.055 268.765 210.814C269.749 211.301 271.082 212.258 271.927 213.16C272.51 213.745 273.269 214.856 274.611 217.839C276.128 221.172 277.762 225.792 277.762 225.792C277.762 225.792 276.187 227.488 273.969 228.307C273.215 228.559 272.399 228.766 271.579 228.907C271.54 229.354 271.5 229.798 271.46 230.236C271.433 230.619 271.15 231.743 270.857 232.91C270.524 234.238 270.176 235.621 270.176 236.026C270.107 237.108 269.902 238.106 269.694 239.121C269.205 241.507 268.697 243.982 269.885 247.839C270.293 249.184 270.41 249.827 270.41 250.353C270.41 250.704 269.943 251.113 269.71 251.23C269.009 251.64 267.609 251.932 265.975 252.108C262.707 252.517 258.214 252.575 255.53 252.575C251.912 252.575 246.543 251.991 245.843 251.113C245.369 250.509 245.563 249.682 245.814 248.609C245.903 248.228 246 247.815 246.076 247.371C247.187 241.131 247.059 237.371 246.916 233.147C246.886 232.265 246.855 231.362 246.835 230.412V230.061C246.368 229.944 245.901 229.768 245.434 229.593C241.466 228.248 239.366 226.611 239.366 226.611C240.591 221.23 242.108 217.605 243.45 215.207C243.48 215.178 243.494 215.148 243.509 215.119C243.523 215.09 243.538 215.061 243.567 215.031C243.596 215.002 243.611 214.973 243.626 214.944C243.64 214.915 243.655 214.885 243.684 214.856C244.382 213.69 245.428 212.698 246.533 211.881C246.536 211.859 246.54 211.837 246.543 211.815C246.602 211.786 246.66 211.742 246.718 211.698C246.777 211.654 246.835 211.61 246.893 211.581C247.477 211.172 248.002 210.821 248.586 210.528C248.644 210.528 248.702 210.47 248.761 210.411C248.83 210.365 248.899 210.328 248.964 210.293C249.065 210.239 249.157 210.19 249.228 210.119C249.257 210.09 249.286 210.075 249.315 210.06C249.344 210.046 249.373 210.031 249.403 210.002C250.628 209.417 252.379 208.774 253.429 208.423C253.487 208.394 253.546 208.379 253.604 208.365C253.662 208.35 253.721 208.335 253.779 208.306C254.713 208.248 255.763 208.248 256.93 208.248C257.922 208.306 259.381 208.423 261.015 208.598C262.882 208.832 264.866 209.183 266.442 209.593H266.5C266.514 209.598 266.532 209.605 266.553 209.613Z" fill="url(#paint4_linear_1_3)"/>
<path d="M246.718 193.277C246.718 193.277 247.185 198.774 248.994 199.183C250.803 199.534 250.395 197.195 250.395 197.195L250.161 194.563L246.718 193.277Z" fill="#002C54"/>
<path d="M255.121 213.277C251.561 212.867 252.904 209.358 253.37 208.598C253.487 208.54 254.129 208.364 254.187 208.364C254.304 208.247 254.421 208.13 254.479 207.955C254.829 207.019 254.654 205.206 254.654 205.089V204.68C254.713 204.446 254.771 204.271 254.829 204.037L256.697 202.575L260.665 199.475C260.665 199.475 259.614 204.68 260.431 208.013C260.49 208.247 260.606 208.598 260.956 208.832C261.073 208.891 261.19 208.949 261.365 208.949C262.357 209.358 261.015 213.978 255.121 213.277Z" fill="#E09C85"/>
<path d="M247.594 194.095C247.594 194.095 248.411 205.499 251.503 206.493C251.503 206.493 255.413 206.844 258.214 203.043C259.031 201.932 260.023 201.698 260.373 200.411C260.898 198.247 261.657 194.329 260.723 191.932C259.381 188.481 247.769 185.791 247.594 194.095Z" fill="#E2B896"/>
<path d="M260.782 190.002C260.723 187.955 258.622 187.136 258.622 187.136C256.522 186.142 252.204 186.552 247.71 187.604C246.66 187.838 245.318 187.195 244.618 187.721C243.742 188.364 244.618 191.171 244.618 191.171C246.368 196.435 252.67 194.68 254.596 194.037C255.063 195.382 255.005 197.253 256.113 198.248C256.755 198.774 257.864 198.832 259.031 198.598C259.148 198.891 259.673 199.125 259.79 199.476C260.14 200.704 260.081 202.634 260.081 204.096L260.606 203.803C260.723 203.394 266.325 190.177 260.782 190.002Z" fill="#002C54"/>
<path d="M257.922 200.996C260.14 201.815 260.782 196.434 258.739 196.201C257.164 196.025 257.105 198.247 257.105 198.247C257.105 198.247 256.697 200.528 257.922 200.996Z" fill="#E2B896"/>
<path d="M279.046 238.54C278.054 239.651 274.436 240.47 272.686 238.95C272.16 238.482 271.519 237.137 270.877 235.558C269.301 231.464 269.068 229.097 269.068 229.097L277.238 226.129C277.238 226.129 277.062 225.792 277.996 230.295C277.996 230.295 277.996 230.353 277.996 230.412C278.288 231.874 278.579 233.277 278.754 234.505C278.754 234.564 278.754 234.564 278.754 234.622C278.988 236.026 279.163 237.488 279.046 238.54Z" fill="#E2B896"/>
<path d="M278.988 238.54C278.929 239.125 278.754 239.593 278.462 239.71C278.404 239.768 277.762 240.119 277.704 240.177C276.712 240.762 274.903 241.815 272.627 242.809C267.142 245.148 259.206 247.897 254.946 249.183C254.946 249.183 254.538 247.955 253.837 246.727C253.837 246.727 257.689 244.914 261.54 241.99C265.333 239.066 270.818 235.557 270.818 235.557L272.219 233.92C272.219 233.92 277.12 229.359 277.937 230.294C277.937 230.294 277.937 230.353 277.937 230.411C278.054 230.879 278.462 232.633 278.696 234.505C278.696 234.563 278.696 234.563 278.696 234.622C278.988 236.025 279.104 237.487 278.988 238.54Z" fill="#E2B896"/>
<path d="M254.421 246.435C254.421 246.435 253.487 247.02 252.495 246.786C251.97 246.669 251.737 246.435 251.328 246.376C250.92 246.318 249.869 246.201 249.344 245.909C248.819 245.675 248.585 245.616 248.644 246.142C248.644 246.669 249.694 247.137 249.986 247.254C250.278 247.429 250.628 247.897 250.686 247.955C250.745 248.014 248.936 248.95 248.469 248.774C248.469 248.774 248.352 249.183 248.41 249.417C248.469 249.651 248.877 249.768 248.877 249.885C248.877 250.002 248.819 250.236 248.877 250.47C248.936 250.645 249.286 250.645 249.402 250.996C249.519 251.289 249.402 251.289 249.461 251.64C249.577 251.991 249.986 252.049 250.044 252.166C250.103 252.283 250.103 252.517 250.278 252.634C250.453 252.751 252.028 252.224 252.612 251.991C253.195 251.757 254.771 249.476 256.463 248.716L254.421 246.435Z" fill="#E2B896"/>
<path d="M262.59 256.493H250.161V255.265H262.59C262.941 255.265 263.174 255.558 263.174 255.85C263.174 256.201 262.941 256.493 262.59 256.493Z" fill="#0A7B41"/>
<path d="M254.713 256.494H223.552C223.202 256.494 222.852 256.26 222.735 255.909L216.374 232.926C216.258 232.4 216.608 231.932 217.133 231.932H247.243C247.944 231.932 248.585 232.4 248.76 233.101L255.121 256.026C255.238 256.201 255.004 256.494 254.713 256.494Z" fill="#0A7B41"/>
<path d="M0 307.839H344.11" stroke="white" stroke-opacity="0.4" stroke-width="0.9069" stroke-miterlimit="10"/>
<path d="M80.0024 295.734L84.2039 296.319L82.8034 301.231L78.2518 300.061C78.2518 300.061 76.3845 297.547 79.1855 295.734C79.3022 295.617 79.769 295.675 80.0024 295.734Z" fill="#E2B896"/>
<path d="M111.222 283.16L105.036 264.447C105.036 264.447 103.169 263.804 102.235 264.447C102.235 264.447 95.8164 267.897 96.5166 277.78C97.0418 285.207 98.6173 293.277 99.2592 296.552L82.8036 295.968C82.8036 295.968 80.7612 298.365 82.1033 301.523C82.1033 301.523 102.76 307.079 105.678 307.605C108.071 308.014 110.638 308.365 111.864 307.254C114.023 305.324 111.222 283.16 111.222 283.16Z" fill="url(#paint5_linear_1_3)"/>
<path d="M99.4343 295.734L103.636 296.319L102.235 301.231L97.6837 300.061C97.6837 300.061 95.8164 297.547 98.6174 295.734C98.7924 295.617 99.2593 295.675 99.4343 295.734Z" fill="#E2B896"/>
<path d="M97.917 298.307C97.8003 299.242 98.6756 300.12 98.5006 300.353C98.3255 300.587 95.5246 305.324 95.5246 305.324C95.5246 305.324 97.6253 306.26 97.3335 307.605H91.965C91.965 307.605 90.5645 306.318 90.6229 304.506C90.6229 304.506 90.973 302.4 91.965 300.587C92.8987 298.716 95.1161 294.564 95.1161 294.564C95.1161 294.564 95.758 294.272 96.925 294.622C98.2672 294.973 99.5509 295.792 99.5509 295.792C99.5509 295.792 98.1505 295.909 97.917 298.307Z" fill="#E2B896"/>
<path d="M140.982 303.278C139.64 298.307 127.152 277.137 122.951 271.406C114.256 267.605 105.036 264.447 105.036 264.447C101.185 265.382 99.3175 273.102 101.477 278.248C102.994 281.757 112.389 290.646 118.166 295.909H102.118C102.118 295.909 100.251 298.716 101.943 301.406C101.943 301.406 128.611 307.488 130.945 307.839C133.279 308.19 138.531 307.839 138.531 307.839C138.531 307.839 142.149 307.488 140.982 303.278Z" fill="url(#paint6_linear_1_3)"/>
<path d="M78.4854 298.307C78.3687 299.242 79.244 300.12 79.0689 300.353C78.8939 300.587 76.0929 305.324 76.0929 305.324C76.0929 305.324 78.1936 306.26 77.9019 307.605H72.5334C72.5334 307.605 71.1329 306.318 71.1912 304.506C71.1912 304.506 71.5413 302.4 72.5334 300.587C73.467 298.716 75.6844 294.564 75.6844 294.564C75.6844 294.564 76.3263 294.272 77.4934 294.622C78.8355 294.973 80.1193 295.792 80.1193 295.792C80.1193 295.792 78.7188 295.909 78.4854 298.307Z" fill="#E2B896"/>
<path d="M131.354 241.64L134.972 237.956C134.972 237.956 135.088 236.318 135.322 235.967C135.497 235.616 136.022 234.33 136.255 234.213C136.489 234.096 137.014 234.213 137.014 234.213C137.014 234.213 137.539 234.038 137.714 234.038C137.948 234.038 138.356 234.271 138.356 234.271C138.356 234.271 138.881 234.213 139.115 234.213C139.348 234.213 139.406 234.271 139.406 234.271C139.406 234.271 140.282 233.277 140.69 232.926C141.099 232.576 141.741 231.991 141.974 231.991C142.149 231.991 142.207 232.283 142.091 232.634C141.974 232.985 141.39 233.511 141.39 233.511L139.757 236.026C139.757 236.026 140.048 235.909 140.165 235.792C140.34 235.675 141.332 234.739 141.39 234.739C141.449 234.681 141.916 234.388 142.149 234.681C142.382 234.973 140.457 237.371 140.107 237.663C139.815 237.956 137.948 238.891 137.948 238.891C137.948 238.891 136.022 242.342 135.847 242.576C135.672 242.81 131.354 241.64 131.354 241.64Z" fill="#E2B896"/>
<path d="M134.738 224.505C134.738 224.505 132.696 236.201 130.829 236.494C130.829 236.494 123.243 236.786 121.55 227.605C120.092 219.651 125.927 217.897 128.669 218.54C131.47 219.125 135.322 219.534 134.738 224.505Z" fill="#E2B896"/>
<path d="M128.027 234.622C128.027 234.622 126.977 236.084 126.569 239.534C126.569 239.534 123.418 240.002 120.5 238.482C120.5 238.482 122.075 233.569 122.25 228.248" fill="#E2B896"/>
<path d="M161.114 238.014L152.536 253.16L146.351 247.02L141.274 254.622L142.733 255.324L142.207 255.792C142.207 255.792 154.112 261.581 155.512 260.295C156.913 259.008 163.565 239.71 163.565 239.71L161.114 238.014Z" fill="#E2B896"/>
<path d="M167.533 232.458C167.416 232.458 166.541 233.16 166.074 233.511L166.541 232.575C166.541 232.575 167.183 231.932 167.416 231.581C167.649 231.23 167.533 230.879 167.358 230.879C167.241 230.879 166.424 231.464 166.016 231.874L166.132 231.698C166.132 231.698 166.774 231.055 167.008 230.704C167.241 230.353 167.124 230.002 166.949 230.002C166.774 230.002 165.257 231.23 165.257 231.23L164.557 232.224L165.082 231.172C165.082 231.172 165.374 230.821 165.549 230.412C165.724 230.002 165.607 229.885 165.49 229.768C165.374 229.651 164.382 230.412 164.148 230.704C163.915 230.996 163.098 232.224 163.04 232.4L162.223 234.154C162.164 233.628 162.106 232.809 162.048 232.224C161.989 231.406 161.231 231.23 161.231 231.64C161.231 232.049 160.822 233.92 160.881 234.973C160.997 236.026 161.114 236.669 161.231 237.254C161.347 237.839 160.705 239.008 160.705 239.008C160.705 239.008 163.098 240.47 163.506 240.061C163.915 239.593 164.732 238.599 165.14 237.955C165.724 237.02 166.074 235.85 166.074 235.85L166.833 234.271C166.833 234.271 167.474 233.628 167.708 233.277C167.825 232.809 167.708 232.458 167.533 232.458Z" fill="#E2B896"/>
<path d="M147.401 248.014C147.401 248.014 145.767 254.856 142.499 258.131L134.213 254.973C134.213 254.973 130.361 261.464 126.569 266.435C125.11 268.365 124.643 271.055 122.951 271.406C122.834 271.347 122.717 271.347 122.659 271.289C118.049 269.885 111.222 271.347 105.62 269.3C99.4342 266.961 100.601 265.675 100.601 265.675C100.601 265.675 104.394 258.891 106.495 251.639C107.429 248.423 108.129 245.499 108.537 243.218C109.354 239.125 112.564 235.967 116.707 235.382C116.765 235.382 116.824 235.382 116.824 235.382C121.55 234.797 133.863 236.259 136.255 237.253C138.706 238.306 147.401 248.014 147.401 248.014Z" fill="url(#paint7_linear_1_3)"/>
<path d="M125.927 216.552C121.784 217.487 122.134 220.061 122.134 220.061C120.208 220.528 119.8 221.347 119.8 224.914C119.8 228.482 121.083 232.809 121.842 233.16C122.542 233.511 126.627 233.511 126.919 233.394C127.269 233.277 128.669 230.002 128.319 229.417C127.969 228.833 128.319 226.552 129.253 226.493C130.186 226.435 130.011 227.897 130.011 227.897L130.77 227.721L131.354 226.259C136.839 226.61 138.239 220.353 138.239 220.353C136.955 219.417 130.07 215.616 125.927 216.552Z" fill="#002C54"/>
<defs>
<linearGradient id="paint0_linear_1_3" x1="177.31" y1="307.897" x2="177.31" y2="119.963" gradientUnits="userSpaceOnUse">
<stop stop-color="white"/>
<stop offset="1" stop-color="white" stop-opacity="0"/>
</linearGradient>
<linearGradient id="paint1_linear_1_3" x1="170.655" y1="71.6965" x2="170.655" y2="307.956" gradientUnits="userSpaceOnUse">
<stop stop-color="#0A5531"/>
<stop offset="1" stop-color="#052436"/>
</linearGradient>
<linearGradient id="paint2_linear_1_3" x1="239.833" y1="265.324" x2="240.648" y2="290.116" gradientUnits="userSpaceOnUse">
<stop stop-color="#365347"/>
<stop offset="1" stop-color="#0C2B1E"/>
</linearGradient>
<linearGradient id="paint3_linear_1_3" x1="223.899" y1="258.433" x2="222.208" y2="289.079" gradientUnits="userSpaceOnUse">
<stop stop-color="#365347"/>
<stop offset="1" stop-color="#0C2B1E"/>
</linearGradient>
<linearGradient id="paint4_linear_1_3" x1="258.656" y1="212.18" x2="258.351" y2="252.574" gradientUnits="userSpaceOnUse">
<stop stop-color="#E8A16C"/>
<stop offset="1" stop-color="#CF681C"/>
</linearGradient>
<linearGradient id="paint5_linear_1_3" x1="97.1637" y1="264.161" x2="97.6269" y2="293.099" gradientUnits="userSpaceOnUse">
<stop stop-color="#365347"/>
<stop offset="1" stop-color="#0C2B1E"/>
</linearGradient>
<linearGradient id="paint6_linear_1_3" x1="120.889" y1="264.447" x2="121.238" y2="293.196" gradientUnits="userSpaceOnUse">
<stop stop-color="#365347"/>
<stop offset="1" stop-color="#0C2B1E"/>
</linearGradient>
<linearGradient id="paint7_linear_1_3" x1="124.069" y1="238.456" x2="123.903" y2="271.405" gradientUnits="userSpaceOnUse">
<stop stop-color="#E8A16C"/>
<stop offset="1" stop-color="#CF681C"/>
</linearGradient>
</defs>
</svg>
